<svg width="20" height="20" xmlns="http://www.w3.org/2000/svg"><path d="M19.502 11.342a.703.703 0 00.588.128.686.686 0 00.456-.367.669.669 0 00-.028-.65A9.966 9.966 0 0010.006 5.13c-5.354.08-9.727 4.405-9.89 9.78a10.005 10.005 0 008.338 10.29.7.7 0 00.65-.244.685.685 0 00.131-.665 4.275 4.275 0 01-.182-1.233c0-2.257 1.752-4.103 3.947-4.103 1.255 0 2.41.592 3.16 1.602.123.162.319.267.538.267a.69.69 0 00.382-.115A9.937 9.937 0 0020 15.06c0-.94-.131-1.85-.375-2.716a.685.685 0 00-.123-.262.635.635 0 00-.006-.014z" fill="#858BB2" fill-rule="nonzero"/></svg>
